<?xml version="1.0" standalone="no"?>
<!DOCTYPE svg PUBLIC "-//W3C//DTD SVG 20010904//EN"
 "http://www.w3.org/TR/2001/REC-SVG-20010904/DTD/svg10.dtd">
<svg version="1.0" xmlns="http://www.w3.org/2000/svg"
 width="140.000000pt" height="28.000000pt" viewBox="0 0 140.000000 28.000000"
 preserveAspectRatio="xMidYMid meet">
<metadata>
Created by potrace 1.16, written by Peter Selinger 2001-2019
</metadata>
<g transform="translate(0.000000,28.000000) scale(0.008750,-0.003500)"
fill="#000000" stroke="none">
<path d="M8690 5169 c-415 -34 -808 -145 -1016 -286 -145 -99 -241 -240 -252
-368 -10 -130 36 -205 177 -289 119 -70 208 -103 613 -226 579 -177 673 -209
808 -277 201 -100 290 -189 290 -286 0 -41 -34 -94 -75 -118 -116 -68 -455
-77 -754 -19 -190 37 -424 120 -574 204 -171 96 -249 225 -183 303 13 15 62
50 109 76 47 26 90 54 96 61 36 43 -126 58 -209 20 -139 -63 -190 -209 -121
-349 39 -79 150 -186 258 -250 93 -54 293 -134 441 -175 334 -95 729 -113 926
-45 172 60 256 161 256 306 0 168 -143 325 -425 465 -150 74 -192 89 -680 229
-477 137 -618 192 -700 272 -111 108 39 276 340 380 115 40 330 89 495 114
202 31 560 34 707 6 179 -34 287 -79 312 -131 12 -25 11 -30 -5 -46 -11 -10
-48 -30 -84 -45 -91 -37 -110 -51 -110 -80 0 -38 50 -60 136 -59 58 0 81 5
129 29 33 17 62 31 65 33 3 1 5 -12 3 -30 -2 -18 -12 -204 -23 -413 -11 -209
-29 -498 -41 -642 -14 -189 -17 -268 -9 -282 22 -43 132 -45 170 -4 10 10 22
49 28 88 13 83 71 260 118 363 18 39 34 72 36 72 2 0 -1 -34 -6 -77 -12 -95 4
-234 33 -292 28 -54 69 -74 137 -69 37 3 63 12 88 32 31 23 101 114 142 182
10 17 13 15 32 -21 60 -116 199 -166 336 -119 137 47 235 244 208 418 -27 169
-124 272 -268 284 -148 12 -233 -70 -314 -303 -42 -121 -127 -290 -161 -321
-17 -16 -19 -15 -29 12 -13 34 1 260 26 417 22 133 17 142 -74 141 -100 -1
-128 -26 -222 -192 -29 -51 -54 -91 -56 -89 -6 5 14 264 42 553 15 149 24 283
20 298 -5 20 -19 33 -52 47 -24 11 -52 18 -62 15 -9 -2 -27 -7 -39 -11 -21 -6
-21 -5 -6 42 48 155 -60 296 -287 375 -88 31 -266 66 -390 77 -129 12 -197 12
-350 0z m1974 -1188 c71 -79 87 -356 24 -436 -27 -34 -70 -33 -97 2 -68 85
-73 347 -9 428 23 30 58 32 82 6z"/>
<path d="M2542 5129 c-334 -43 -663 -374 -810 -816 -105 -313 -78 -586 81
-830 206 -319 608 -499 1030 -463 164 14 271 41 402 104 201 96 342 235 437
431 79 165 92 227 92 450 0 173 -3 199 -26 287 -149 553 -661 908 -1206 837z
m258 -190 c93 -23 242 -89 317 -140 205 -140 352 -376 398 -638 49 -278 -13
-510 -185 -695 -288 -309 -919 -308 -1264 3 -85 77 -168 220 -201 346 -19 72
-21 225 -5 315 68 376 376 776 640 833 49 11 217 -3 300 -24z"/>
<path d="M4781 4642 c-13 -4 -33 -19 -44 -34 -22 -29 -24 -49 -52 -458 -25
-371 -27 -379 -127 -527 -52 -79 -84 -104 -100 -82 -9 15 -4 252 8 327 8 53
-11 71 -73 72 -93 0 -138 -38 -204 -175 -57 -118 -59 -110 -22 109 l27 159
-28 23 c-50 44 -150 24 -190 -38 -25 -38 -33 -160 -28 -401 4 -220 6 -230 27
-255 19 -23 31 -26 79 -26 78 0 101 24 120 124 17 89 50 192 74 228 17 26 17
25 23 -69 6 -111 33 -180 83 -210 41 -25 119 -25 160 0 30 19 92 87 128 140
10 14 18 22 18 17 0 -5 7 -56 16 -113 28 -191 70 -262 161 -270 89 -7 165 62
239 216 l36 74 20 -44 c24 -55 53 -87 97 -105 88 -37 160 3 240 131 l31 50 0
-61 c0 -50 4 -64 23 -81 44 -41 131 -38 171 6 9 10 21 44 27 77 14 81 67 240
85 254 12 11 14 1 14 -71 1 -63 6 -97 23 -138 29 -71 60 -94 138 -99 l61 -5
75 77 c41 42 76 76 77 76 2 0 6 -23 9 -50 8 -71 53 -164 97 -204 50 -45 99
-60 174 -53 180 15 335 171 436 441 57 151 55 190 -10 184 -21 -3 -34 -21 -85
-123 -98 -196 -188 -316 -266 -355 -52 -27 -75 -25 -109 8 -36 37 -54 135 -43
241 l8 75 70 11 c182 31 260 109 240 240 -18 125 -97 227 -196 255 -116 34
-233 -98 -294 -330 -30 -113 -68 -193 -130 -277 -48 -64 -73 -82 -87 -61 -12
19 -10 236 3 301 15 75 -1 97 -72 97 -97 0 -154 -55 -216 -205 -39 -96 -41
-58 -8 133 20 115 24 156 15 171 -34 65 -157 50 -206 -24 -9 -14 -22 -70 -30
-133 -14 -110 -43 -205 -107 -344 -36 -79 -53 -92 -78 -61 -20 23 -16 219 5
357 20 123 14 156 -35 181 -33 18 -92 19 -121 4 -28 -15 -48 -69 -48 -133 0
-59 -49 -214 -126 -398 -50 -118 -67 -140 -89 -117 -27 26 -34 139 -25 406 9
260 15 332 50 632 12 100 16 170 11 180 -26 47 -92 70 -150 53z m1767 -665 c5
-90 -11 -115 -77 -124 l-43 -6 7 34 c14 66 45 154 61 177 15 22 18 23 33 8 11
-11 17 -39 19 -89z"/>
<path d="M5165 4403 c-116 -47 -158 -132 -100 -201 20 -24 41 -34 95 -46 84
-19 145 -10 215 35 103 65 90 179 -24 218 -48 16 -139 13 -186 -6z"/>
<path d="M12373 4399 c-67 -26 -113 -77 -113 -125 0 -47 23 -89 57 -102 100
-40 197 -34 274 18 51 34 68 62 69 113 1 97 -151 148 -287 96z"/>
<path d="M11080 4278 c-86 -44 -87 -49 -94 -365 -7 -327 -25 -782 -33 -834 -4
-29 -1 -41 16 -58 34 -34 148 -26 173 12 3 6 9 95 13 199 4 103 8 188 9 188 0
0 23 -11 50 -25 123 -62 245 -6 319 146 111 228 49 521 -120 568 -59 17 -86
13 -149 -19 -32 -16 -60 -27 -62 -25 -3 2 -1 44 4 92 10 102 8 124 -9 135 -22
14 -72 8 -117 -14z m287 -320 c25 -49 30 -208 9 -295 -19 -77 -51 -139 -82
-160 -18 -12 -24 -11 -49 9 -76 59 -85 242 -19 389 30 66 54 89 96 89 21 0 32
-8 45 -32z"/>
<path d="M11750 4278 c-85 -44 -84 -39 -92 -386 -8 -335 -26 -756 -35 -813 -8
-53 21 -79 87 -79 68 0 98 16 110 59 5 20 10 109 10 199 0 89 2 162 4 162 3 0
26 -11 52 -25 150 -80 300 30 360 265 20 78 15 220 -11 291 -18 53 -74 123
-114 143 -68 36 -145 28 -216 -20 l-38 -25 7 87 c3 48 9 97 12 109 13 54 -60
71 -136 33z m290 -323 c22 -46 26 -217 6 -296 -23 -87 -52 -144 -81 -157 -21
-10 -29 -8 -54 14 -41 34 -55 84 -55 185 1 164 64 294 138 287 23 -2 35 -11
46 -33z"/>
<path d="M13633 4134 c-41 -21 -125 -109 -151 -160 -11 -22 -34 -82 -51 -134
-51 -158 -171 -334 -204 -301 -20 20 -21 176 -2 277 l17 89 -22 17 c-27 22
-97 24 -144 4 -48 -20 -104 -103 -152 -226 -14 -34 -14 -32 -9 40 2 41 13 120
24 174 21 107 17 137 -20 157 -31 16 -111 6 -147 -20 -36 -26 -49 -59 -60
-166 -11 -99 -50 -223 -105 -335 -71 -145 -104 -107 -93 110 3 63 12 152 21
196 22 119 -2 163 -93 172 -41 3 -53 0 -77 -21 -26 -22 -30 -33 -36 -103 -4
-44 -8 -146 -8 -229 -1 -212 21 -286 103 -339 33 -23 49 -27 87 -23 62 5 98
33 158 123 l51 76 0 -66 c0 -52 4 -70 19 -85 42 -42 146 -34 176 12 7 12 18
49 24 82 6 33 23 96 37 140 45 136 61 139 66 13 4 -109 24 -160 78 -196 29
-20 44 -23 95 -20 l59 5 71 77 70 77 29 -66 c46 -107 120 -155 235 -155 51 0
98 17 134 48 16 14 17 13 17 -15 0 -29 -2 -30 -78 -46 -147 -32 -295 -125
-336 -212 -21 -44 -20 -111 3 -160 22 -49 43 -68 102 -94 65 -29 120 -35 181
-21 171 41 270 158 318 379 20 91 23 96 99 191 92 114 140 197 181 309 36 98
38 136 9 152 -34 18 -63 -2 -84 -57 -39 -106 -149 -304 -167 -304 -10 0 -10 9
3 220 15 250 15 251 -16 278 -19 16 -39 22 -73 22 -44 0 -50 3 -86 46 -56 66
-90 84 -161 84 -34 0 -74 -7 -92 -16z m148 -104 c47 -26 86 -174 74 -280 -16
-141 -75 -285 -121 -296 -40 -10 -73 11 -97 64 -19 40 -22 64 -21 157 1 165
50 316 113 350 32 17 28 17 52 5z m23 -837 c-26 -108 -82 -200 -138 -227 -44
-21 -52 -20 -76 4 -44 44 -8 140 71 190 41 27 113 57 142 59 4 1 4 -11 1 -26z"/>
</g>
</svg>
